<?xml version="1.0" standalone="no"?>
<!DOCTYPE svg PUBLIC "-//W3C//DTD SVG 20010904//EN"
 "http://www.w3.org/TR/2001/REC-SVG-20010904/DTD/svg10.dtd">
<svg version="1.0" xmlns="http://www.w3.org/2000/svg"
 width="400.000000pt" height="400.000000pt" viewBox="0 0 400.000000 400.000000"
 preserveAspectRatio="xMidYMid meet">
<metadata>
Created by potrace 1.14, written by Peter Selinger 2001-2017
</metadata>
<g transform="translate(0.000000,400.000000) scale(0.100000,-0.100000)"
fill="#000000" stroke="none">
<path d="M2325 3473 c-268 -94 -495 -316 -650 -638 -113 -234 -179 -469 -299
-1065 -74 -366 -127 -584 -150 -614 -10 -14 -17 -14 -66 -1 -94 25 -302 55
-375 55 -87 0 -186 -23 -241 -55 -81 -48 -132 -131 -121 -199 16 -97 122 -226
232 -281 52 -26 71 -30 140 -30 71 0 86 4 140 33 100 54 196 156 276 294 48
83 13 84 329 -15 477 -148 625 -189 840 -233 120 -24 158 -28 340 -28 186 -1
213 1 284 22 116 34 226 95 300 166 58 56 136 159 136 179 0 21 -83 -41 -105
-79 -35 -59 -120 -134 -196 -171 -169 -82 -432 -85 -774 -7 -156 36 -317 82
-660 189 -165 51 -326 101 -357 110 -32 8 -58 17 -58 19 0 1 11 35 25 74 40
116 91 320 145 592 116 576 166 770 256 990 85 211 159 327 293 461 80 79 111
103 185 140 l89 44 111 0 c102 0 115 -2 164 -28 257 -135 326 -593 140 -927
-102 -183 -303 -376 -493 -473 -27 -13 -59 -35 -70 -47 -18 -20 -14 -19 41 8
151 76 344 225 444 345 181 214 269 433 270 668 0 171 -48 307 -147 410 -109
114 -259 147 -418 92z m-1355 -2359 c136 -27 200 -43 214 -55 12 -10 -87 -196
-136 -252 -53 -63 -121 -97 -191 -97 -188 0 -421 284 -324 395 13 16 39 29 67
35 66 13 227 2 370 -26z"/>
</g>
</svg>
